<mxfile host="app.diagrams.net" modified="2022-09-09T17:40:40.835Z" agent="5.0 (X11)" etag="RklL4SoEji-CrocJscn4" compressed="false" version="20.3.0">
  <diagram id="jMMvKZKhj5EWoDYwxKmR" name="Page-1">
    <mxGraphModel dx="1152" dy="618" grid="1" gridSize="10" guides="1" tooltips="1" connect="1" arrows="1" fold="1" page="1" pageScale="1" pageWidth="850" pageHeight="1100" math="0" shadow="0">
      <root>
        <mxCell id="0" />
        <mxCell id="1" parent="0" />
        <mxCell id="NmC5mxCe-51RnnEjxC0A-1" value="Gymnase" style="swimlane;childLayout=stackLayout;horizontal=1;startSize=30;horizontalStack=0;rounded=1;fontSize=14;fontStyle=0;strokeWidth=2;resizeParent=0;resizeLast=1;shadow=0;dashed=0;align=center;" vertex="1" parent="1">
          <mxGeometry x="90" y="395" width="160" height="100" as="geometry">
            <mxRectangle x="270" y="110" width="100" height="30" as="alternateBounds" />
          </mxGeometry>
        </mxCell>
        <mxCell id="NmC5mxCe-51RnnEjxC0A-2" value="+id_gymnase&#xa;+nom&#xa;+adresses&#xa;+num_telephone&#xa;" style="align=left;strokeColor=none;fillColor=none;spacingLeft=4;fontSize=12;verticalAlign=top;resizable=0;rotatable=0;part=1;" vertex="1" parent="NmC5mxCe-51RnnEjxC0A-1">
          <mxGeometry y="30" width="160" height="70" as="geometry" />
        </mxCell>
        <mxCell id="NmC5mxCe-51RnnEjxC0A-3" value="Session" style="swimlane;childLayout=stackLayout;horizontal=1;startSize=30;horizontalStack=0;rounded=1;fontSize=14;fontStyle=0;strokeWidth=2;resizeParent=0;resizeLast=1;shadow=0;dashed=0;align=center;" vertex="1" parent="1">
          <mxGeometry x="520" y="415" width="160" height="90" as="geometry" />
        </mxCell>
        <mxCell id="NmC5mxCe-51RnnEjxC0A-4" value="+id_session&#xa;+type_sport&#xa;+horaire_session&#xa;" style="align=left;strokeColor=none;fillColor=none;spacingLeft=4;fontSize=12;verticalAlign=top;resizable=0;rotatable=0;part=1;" vertex="1" parent="NmC5mxCe-51RnnEjxC0A-3">
          <mxGeometry y="30" width="160" height="60" as="geometry" />
        </mxCell>
        <mxCell id="NmC5mxCe-51RnnEjxC0A-5" value="Membre" style="swimlane;childLayout=stackLayout;horizontal=1;startSize=30;horizontalStack=0;rounded=1;fontSize=14;fontStyle=0;strokeWidth=2;resizeParent=0;resizeLast=1;shadow=0;dashed=0;align=center;" vertex="1" parent="1">
          <mxGeometry x="870" y="365" width="160" height="130" as="geometry" />
        </mxCell>
        <mxCell id="NmC5mxCe-51RnnEjxC0A-6" value="+id_membre&#xa;+nom&#xa;+prenom&#xa;+adresse&#xa;+date_naissance&#xa;+sexe&#xa;" style="align=left;strokeColor=none;fillColor=none;spacingLeft=4;fontSize=12;verticalAlign=top;resizable=0;rotatable=0;part=1;" vertex="1" parent="NmC5mxCe-51RnnEjxC0A-5">
          <mxGeometry y="30" width="160" height="100" as="geometry" />
        </mxCell>
        <mxCell id="NmC5mxCe-51RnnEjxC0A-73" style="edgeStyle=entityRelationEdgeStyle;rounded=0;orthogonalLoop=1;jettySize=auto;html=1;exitX=0.25;exitY=0;exitDx=0;exitDy=0;entryX=0;entryY=0.75;entryDx=0;entryDy=0;" edge="1" parent="1" source="NmC5mxCe-51RnnEjxC0A-7" target="NmC5mxCe-51RnnEjxC0A-6">
          <mxGeometry relative="1" as="geometry" />
        </mxCell>
        <mxCell id="NmC5mxCe-51RnnEjxC0A-7" value="Coach" style="swimlane;childLayout=stackLayout;horizontal=1;startSize=30;horizontalStack=0;rounded=1;fontSize=14;fontStyle=0;strokeWidth=2;resizeParent=0;resizeLast=1;shadow=0;dashed=0;align=center;" vertex="1" parent="1">
          <mxGeometry x="780" y="580" width="120" height="70" as="geometry" />
        </mxCell>
        <mxCell id="NmC5mxCe-51RnnEjxC0A-77" style="edgeStyle=entityRelationEdgeStyle;rounded=0;orthogonalLoop=1;jettySize=auto;html=1;exitX=0.25;exitY=1;exitDx=0;exitDy=0;entryX=-0.003;entryY=0.16;entryDx=0;entryDy=0;entryPerimeter=0;" edge="1" parent="1" source="NmC5mxCe-51RnnEjxC0A-10" target="NmC5mxCe-51RnnEjxC0A-6">
          <mxGeometry relative="1" as="geometry" />
        </mxCell>
        <mxCell id="NmC5mxCe-51RnnEjxC0A-10" value="Client" style="swimlane;childLayout=stackLayout;horizontal=1;startSize=30;horizontalStack=0;rounded=1;fontSize=14;fontStyle=0;strokeWidth=2;resizeParent=0;resizeLast=1;shadow=0;dashed=0;align=center;" vertex="1" parent="1">
          <mxGeometry x="780" y="260" width="110" height="80" as="geometry" />
        </mxCell>
        <mxCell id="NmC5mxCe-51RnnEjxC0A-49" value="&lt;div&gt;S&#39;inscrire&lt;/div&gt;" style="shape=rhombus;perimeter=rhombusPerimeter;whiteSpace=wrap;html=1;align=center;" vertex="1" parent="1">
          <mxGeometry x="430" y="300" width="90" height="60" as="geometry" />
        </mxCell>
        <mxCell id="NmC5mxCe-51RnnEjxC0A-50" value="" style="endArrow=none;html=1;rounded=0;entryX=0;entryY=0.5;entryDx=0;entryDy=0;exitX=1;exitY=0.5;exitDx=0;exitDy=0;" edge="1" parent="1" source="NmC5mxCe-51RnnEjxC0A-49" target="NmC5mxCe-51RnnEjxC0A-10">
          <mxGeometry relative="1" as="geometry">
            <mxPoint x="490" y="410" as="sourcePoint" />
            <mxPoint x="590" y="410" as="targetPoint" />
          </mxGeometry>
        </mxCell>
        <mxCell id="NmC5mxCe-51RnnEjxC0A-52" value="" style="endArrow=none;html=1;rounded=0;exitX=0;exitY=0.5;exitDx=0;exitDy=0;entryX=1;entryY=0.25;entryDx=0;entryDy=0;" edge="1" parent="1" source="NmC5mxCe-51RnnEjxC0A-49" target="NmC5mxCe-51RnnEjxC0A-2">
          <mxGeometry relative="1" as="geometry">
            <mxPoint x="520" y="440" as="sourcePoint" />
            <mxPoint x="610" y="450" as="targetPoint" />
          </mxGeometry>
        </mxCell>
        <mxCell id="NmC5mxCe-51RnnEjxC0A-53" value="Organiser" style="shape=rhombus;perimeter=rhombusPerimeter;whiteSpace=wrap;html=1;align=center;" vertex="1" parent="1">
          <mxGeometry x="350" y="442.5" width="100" height="45" as="geometry" />
        </mxCell>
        <mxCell id="NmC5mxCe-51RnnEjxC0A-54" value="" style="endArrow=none;html=1;rounded=0;exitX=0;exitY=0.25;exitDx=0;exitDy=0;entryX=1;entryY=0.5;entryDx=0;entryDy=0;" edge="1" parent="1" source="NmC5mxCe-51RnnEjxC0A-4" target="NmC5mxCe-51RnnEjxC0A-53">
          <mxGeometry relative="1" as="geometry">
            <mxPoint x="450" y="450" as="sourcePoint" />
            <mxPoint x="610" y="450" as="targetPoint" />
          </mxGeometry>
        </mxCell>
        <mxCell id="NmC5mxCe-51RnnEjxC0A-55" value="" style="endArrow=none;html=1;rounded=0;entryX=1;entryY=0.5;entryDx=0;entryDy=0;exitX=0;exitY=0.5;exitDx=0;exitDy=0;" edge="1" parent="1" source="NmC5mxCe-51RnnEjxC0A-53" target="NmC5mxCe-51RnnEjxC0A-2">
          <mxGeometry relative="1" as="geometry">
            <mxPoint x="280" y="440" as="sourcePoint" />
            <mxPoint x="290" y="510" as="targetPoint" />
          </mxGeometry>
        </mxCell>
        <mxCell id="NmC5mxCe-51RnnEjxC0A-61" value="Travailler" style="shape=rhombus;perimeter=rhombusPerimeter;whiteSpace=wrap;html=1;align=center;" vertex="1" parent="1">
          <mxGeometry x="480" y="560" width="120" height="60" as="geometry" />
        </mxCell>
        <mxCell id="NmC5mxCe-51RnnEjxC0A-62" value="" style="endArrow=none;html=1;rounded=0;entryX=0;entryY=0.5;entryDx=0;entryDy=0;exitX=1;exitY=0.5;exitDx=0;exitDy=0;" edge="1" parent="1" source="NmC5mxCe-51RnnEjxC0A-61" target="NmC5mxCe-51RnnEjxC0A-7">
          <mxGeometry relative="1" as="geometry">
            <mxPoint x="530" y="460" as="sourcePoint" />
            <mxPoint x="690" y="460" as="targetPoint" />
          </mxGeometry>
        </mxCell>
        <mxCell id="NmC5mxCe-51RnnEjxC0A-63" value="" style="endArrow=none;html=1;rounded=0;entryX=0;entryY=0.5;entryDx=0;entryDy=0;exitX=0.924;exitY=1.014;exitDx=0;exitDy=0;exitPerimeter=0;" edge="1" parent="1" source="NmC5mxCe-51RnnEjxC0A-2" target="NmC5mxCe-51RnnEjxC0A-61">
          <mxGeometry relative="1" as="geometry">
            <mxPoint x="390" y="417.5" as="sourcePoint" />
            <mxPoint x="460" y="452.5" as="targetPoint" />
          </mxGeometry>
        </mxCell>
        <mxCell id="NmC5mxCe-51RnnEjxC0A-70" value="&lt;div&gt;Participer&lt;/div&gt;" style="shape=rhombus;perimeter=rhombusPerimeter;whiteSpace=wrap;html=1;align=center;" vertex="1" parent="1">
          <mxGeometry x="690" y="360" width="90" height="45" as="geometry" />
        </mxCell>
        <mxCell id="NmC5mxCe-51RnnEjxC0A-78" value="" style="endArrow=none;html=1;rounded=0;entryX=0.25;entryY=1;entryDx=0;entryDy=0;exitX=0.5;exitY=0;exitDx=0;exitDy=0;" edge="1" parent="1" source="NmC5mxCe-51RnnEjxC0A-70" target="NmC5mxCe-51RnnEjxC0A-10">
          <mxGeometry relative="1" as="geometry">
            <mxPoint x="630" y="520" as="sourcePoint" />
            <mxPoint x="790" y="520" as="targetPoint" />
          </mxGeometry>
        </mxCell>
        <mxCell id="NmC5mxCe-51RnnEjxC0A-79" value="" style="endArrow=none;html=1;rounded=0;entryX=0;entryY=0.5;entryDx=0;entryDy=0;exitX=0.5;exitY=0;exitDx=0;exitDy=0;" edge="1" parent="1" source="NmC5mxCe-51RnnEjxC0A-3" target="NmC5mxCe-51RnnEjxC0A-70">
          <mxGeometry relative="1" as="geometry">
            <mxPoint x="710" y="490" as="sourcePoint" />
            <mxPoint x="760" y="490" as="targetPoint" />
          </mxGeometry>
        </mxCell>
        <mxCell id="NmC5mxCe-51RnnEjxC0A-82" value="Animer" style="shape=rhombus;perimeter=rhombusPerimeter;whiteSpace=wrap;html=1;align=center;" vertex="1" parent="1">
          <mxGeometry x="690" y="515" width="90" height="45" as="geometry" />
        </mxCell>
        <mxCell id="NmC5mxCe-51RnnEjxC0A-85" value="" style="endArrow=none;html=1;rounded=0;entryX=0;entryY=0;entryDx=0;entryDy=0;exitX=0.5;exitY=1;exitDx=0;exitDy=0;" edge="1" parent="1" source="NmC5mxCe-51RnnEjxC0A-82" target="NmC5mxCe-51RnnEjxC0A-7">
          <mxGeometry relative="1" as="geometry">
            <mxPoint x="710" y="592.5" as="sourcePoint" />
            <mxPoint x="800" y="560" as="targetPoint" />
          </mxGeometry>
        </mxCell>
        <mxCell id="NmC5mxCe-51RnnEjxC0A-86" value="" style="endArrow=none;html=1;rounded=0;entryX=0.75;entryY=1;entryDx=0;entryDy=0;exitX=0;exitY=0;exitDx=0;exitDy=0;" edge="1" parent="1" source="NmC5mxCe-51RnnEjxC0A-82" target="NmC5mxCe-51RnnEjxC0A-4">
          <mxGeometry relative="1" as="geometry">
            <mxPoint x="745" y="570" as="sourcePoint" />
            <mxPoint x="790" y="590" as="targetPoint" />
          </mxGeometry>
        </mxCell>
        <mxCell id="NmC5mxCe-51RnnEjxC0A-87" value="1..2" style="text;html=1;align=center;verticalAlign=middle;resizable=0;points=[];autosize=1;strokeColor=none;fillColor=none;" vertex="1" parent="1">
          <mxGeometry x="610" y="505" width="40" height="30" as="geometry" />
        </mxCell>
        <mxCell id="NmC5mxCe-51RnnEjxC0A-88" value="1..20" style="text;html=1;align=center;verticalAlign=middle;resizable=0;points=[];autosize=1;strokeColor=none;fillColor=none;" vertex="1" parent="1">
          <mxGeometry x="565" y="385" width="50" height="30" as="geometry" />
        </mxCell>
        <mxCell id="NmC5mxCe-51RnnEjxC0A-89" value="1..N" style="text;html=1;align=center;verticalAlign=middle;resizable=0;points=[];autosize=1;strokeColor=none;fillColor=none;" vertex="1" parent="1">
          <mxGeometry x="735" y="270" width="50" height="30" as="geometry" />
        </mxCell>
        <mxCell id="NmC5mxCe-51RnnEjxC0A-90" value="&lt;div&gt;1..N&lt;/div&gt;" style="text;html=1;align=center;verticalAlign=middle;resizable=0;points=[];autosize=1;strokeColor=none;fillColor=none;" vertex="1" parent="1">
          <mxGeometry x="240" y="405" width="50" height="30" as="geometry" />
        </mxCell>
        <mxCell id="NmC5mxCe-51RnnEjxC0A-91" value="1..N" style="text;html=1;align=center;verticalAlign=middle;resizable=0;points=[];autosize=1;strokeColor=none;fillColor=none;" vertex="1" parent="1">
          <mxGeometry x="735" y="610" width="50" height="30" as="geometry" />
        </mxCell>
        <mxCell id="NmC5mxCe-51RnnEjxC0A-92" value="1..N" style="text;html=1;align=center;verticalAlign=middle;resizable=0;points=[];autosize=1;strokeColor=none;fillColor=none;" vertex="1" parent="1">
          <mxGeometry x="195" y="495" width="50" height="30" as="geometry" />
        </mxCell>
        <mxCell id="NmC5mxCe-51RnnEjxC0A-93" value="1..N" style="text;html=1;align=center;verticalAlign=middle;resizable=0;points=[];autosize=1;strokeColor=none;fillColor=none;" vertex="1" parent="1">
          <mxGeometry x="740" y="320" width="50" height="30" as="geometry" />
        </mxCell>
        <mxCell id="NmC5mxCe-51RnnEjxC0A-94" value="1..N" style="text;html=1;align=center;verticalAlign=middle;resizable=0;points=[];autosize=1;strokeColor=none;fillColor=none;" vertex="1" parent="1">
          <mxGeometry x="240" y="457.5" width="50" height="30" as="geometry" />
        </mxCell>
        <mxCell id="NmC5mxCe-51RnnEjxC0A-96" value="1..1" style="text;html=1;align=center;verticalAlign=middle;resizable=0;points=[];autosize=1;strokeColor=none;fillColor=none;" vertex="1" parent="1">
          <mxGeometry x="480" y="435" width="40" height="30" as="geometry" />
        </mxCell>
        <mxCell id="NmC5mxCe-51RnnEjxC0A-98" value="1..1" style="text;html=1;align=center;verticalAlign=middle;resizable=0;points=[];autosize=1;strokeColor=none;fillColor=none;" vertex="1" parent="1">
          <mxGeometry x="770" y="560" width="40" height="30" as="geometry" />
        </mxCell>
      </root>
    </mxGraphModel>
  </diagram>
</mxfile>
